# xmcd
#
# Track frame offsets: 
#        150
#        19347
#        34334
#        45901
#        55734
#        68776
#        82296
#        98919
#        110672
#        121732
#        135025
#        146851
#        161482
#        174815
#        186365
#        197711
#        208778
#        220548
#        238638
#        253558
#        269490
#        282239
#        288615
#        301717
#        313037
#        322541
#        331856
#
# Disc length: 4740 seconds
#
# Revision: 0
# Processed by: cddbd v1.5.2PL0 Copyright (c) Steve Scherf et al.
# Submitted via: ExactAudioCopy v0.99pb4
#
DISCID=8212821b
DTITLE=Various Artist - Troubled Troubadours 
DYEAR=2010
DGENRE=Country
TTITLE0=Marty Robbins - The Chair
TTITLE1=Waylon Jennings - Delia's Gone 
TTITLE2=Dolly Parton - The Bridge 
TTITLE3=Lorene Mann - Hide My Sin (A.b.o.r.t.i.o.n N.e.w Y.o.r.k)
TTITLE4=Mark Slade - Are They Gonna Shoot God
TTITLE5=Dolly Parton - Daddy Come And Get Me
TTITLE6=Porter Wagoner - Waldo The Weirdo 
TTITLE7=Bobby Bare - Big Ben Colson 
TTITLE8=Roger Miller - The Animal Of Man 
TTITLE9=Justin Tubb - The Family Way 
TTITLE10=Hank Williams Jr. - No Meaning And No End  
TTITLE11=Justin Tubb - The River Road Mystery 
TTITLE12=Norma Jean - Teddy Bear Song
TTITLE13=Lawton Williams - Cold, Cold Hands 
TTITLE14=Trooper Jim Foster - Four Chrome Wheels
TTITLE15=Henson Cargill - Daddy, What's A Tree
TTITLE16=Hank Williams Jr. - The Rainmaker 
TTITLE17=Arlene Harden - Congratulations (You Sure Made A Man Out Of H
TTITLE17=im)
TTITLE18=Hugh X. Lewis - War Is Hell
TTITLE19=Autry Inman - The Ballad Of Two Brothers
TTITLE20=Stonewall Jackson - Push The Panic Button
TTITLE21=Bobby Bare - Your Credit Card Won't Get You Into Heaven 
TTITLE22=Homer and Jethro - I Crept Into The Crypt and Cried 
TTITLE23=Lester Flatt - I Can't Tell The Girls From The Boys 
TTITLE24=Homer And Jethro - I Couldn't Spell 'Pffft'
TTITLE25=Roger Miller - Whistle Stop 
TTITLE26=Burl Ives - The Times They Are A Changin' 
EXTD=
EXTT0=
EXTT1=
EXTT2=
EXTT3=
EXTT4=
EXTT5=
EXTT6=
EXTT7=
EXTT8=
EXTT9=
EXTT10=
EXTT11=
EXTT12=
EXTT13=
EXTT14=
EXTT15=
EXTT16=
EXTT17=
EXTT18=
EXTT19=
EXTT20=
EXTT21=
EXTT22=
EXTT23=
EXTT24=
EXTT25=
EXTT26=
PLAYORDER=
